<svg xmlns="http://www.w3.org/2000/svg" viewBox="0 0 64 64" width="64" height="64">
  <defs>
    <linearGradient id="g" x1="0" y1="0" x2="1" y2="1">
      <stop offset="0" stop-color="#1c919b"/>
      <stop offset="1" stop-color="#0a4348"/>
    </linearGradient>
  </defs>
  <rect x="2" y="2" width="60" height="60" rx="16" fill="url(#g)"/>
  <path d="M39.2 18.1a1.6 1.6 0 0 0 0 2.3l2.6 2.6a1.6 1.6 0 0 0 2.3 0l6-6a9.6 9.6 0 0 1-12.7 12.7L26.3 31.3 19 38.6l-6.6 6.6a3.4 3.4 0 0 1-4.8-4.8l11-11A9.6 9.6 0 0 1 31.3 16.6l-6 6z"
        fill="none" stroke="#ffffff" stroke-width="3.4" stroke-linecap="round" stroke-linejoin="round"/>
</svg>
